#!OML:ASF F:\twosubjects\two\wednesday\Session 1\rory1.ASF
:FULLY-SPECIFIED
:DEGREES
179
root 17.2684 18.779 12.7804 0.373216 -1.01925 3.12644
lowerback 3.90937 1.85389 -5.41432
upperback 0.820013 2.23563 -0.730741
thorax -1.52459 1.13765 2.16181
lowerneck -10.9362 -5.06231 -4.4309
upperneck 15.2333 -6.80306 4.02649
head 6.73556 -3.20509 1.39241
rclavicle 2.72087e-015 -2.92213e-014
rhumerus 21.7615 -10.0897 -86.96
rradius 31.6204
rwrist -12.2825
rhand -14.9741 29.9581
rfingers 7.12502
rthumb 11.1897 0.276532
lclavicle 2.72087e-015 -2.92213e-014
lhumerus -46.4771 16.2167 76.0735
lradius 15.5067
lwrist -3.75462
lhand -14.8653 21.8601
lfingers 7.12502
lthumb 11.2947 51.536
rfemur -49.054 1.50009 14.5003
rtibia 46.0631
rfoot -6.25558 -6.38173
rtoes -3.72028
lfemur -5.0661 -1.49021 -27.9802
ltibia 22.6511
lfoot -16.976 6.40913
ltoes -15.9648
180
root 17.2642 18.7877 12.9212 0.613302 -0.826493 3.04865
lowerback 3.719 1.77044 -5.50126
upperback 0.910652 2.13781 -0.703219
thorax -1.321 1.08276 2.2521
lowerneck -10.9603 -5.02957 -4.29678
upperneck 14.9931 -6.78395 4.09997
head 6.65971 -3.18374 1.3975
rclavicle -1.69588e-015 3.04141e-014
rhumerus 22.4302 -10.1885 -87.035
rradius 32.8666
rwrist -12.0342
rhand -14.8557 29.9613
rfingers 7.12502
rthumb 11.3039 0.285904
lclavicle -1.69588e-015 3.04141e-014
lhumerus -47.1336 15.636 76.1241
lradius 15.2726
lwrist -3.39365
lhand -14.5306 21.1846
lfingers 7.12502
lthumb 11.6174 50.8425
rfemur -49.6839 1.85958 14.2537
rtibia 44.3851
rfoot -5.83755 -7.10373
rtoes -2.86334
lfemur -4.28486 -1.25136 -27.9543
ltibia 21.6225
lfoot -16.6386 6.34579
ltoes -15.66
181
root 17.2676 18.8046 13.0614 0.752691 -0.646564 2.9588
lowerback 3.80817 1.72007 -5.42812
upperback 0.880603 2.06589 -0.74164
thorax -1.39222 1.04883 2.17246
lowerneck -11.1048 -5.05938 -4.02329
upperneck 14.9729 -6.86639 4.09291
head 6.6719 -3.20667 1.33993
rclavicle 3.39238e-014 1.11319e-014
rhumerus 23.2058 -10.8843 -87.5378
rradius 33.599
rwrist -11.4999
rhand -14.6607 30.1396
rfingers 7.12502
rthumb 11.492 0.474585
lclavicle 3.39238e-014 1.11319e-014
lhumerus -47.9653 15.343 75.7328
lradius 14.93
lwrist -3.27319
lhand -13.7223 20.9956
lfingers 7.12502
lthumb 12.3968 50.608
rfemur -50.2142 2.20383 13.9624
rtibia 42.7537
rfoot -5.44581 -7.73991
rtoes -0.831125
lfemur -3.42491 -1.11579 -27.9773
ltibia 20.6182
lfoot -16.4038 6.55074
ltoes -14.6265
182
root 17.2777 18.8171 13.2079 0.879609 -0.399165 3.16974
lowerback 3.89419 1.69355 -5.47586
upperback 0.82231 2.01794 -0.913144
thorax -1.49222 1.02818 2.02163
lowerneck -10.9909 -5.17392 -3.96803
upperneck 14.8866 -7.05958 4.24824
head 6.63659 -3.28656 1.36526
rclavicle 5.32991e-015 -1.45113e-014
rhumerus 23.9106 -10.7953 -87.2163
rradius 34.0178
rwrist -11.9846
rhand -14.7928 30.2275
rfingers 7.12502
rthumb 11.3646 0.555404
lclavicle 5.32991e-015 -1.45113e-014
lhumerus -48.8408 14.7354 75.4926
lradius 14.9001
lwrist -2.90619
lhand -14.3819 20.8437
lfingers 7.12502
lthumb 11.7609 50.4935
rfemur -50.8642 2.40323 13.2902
rtibia 41.07
rfoot -5.05195 -8.40073
rtoes -0.536108
lfemur -2.57291 -1.02653 -28.3616
ltibia 19.6866
lfoot -16.2091 6.95823
ltoes -15.0942
183
root 17.2746 18.8182 13.3553 1.15963 -0.0340251 3.14032
lowerback 3.66307 1.59223 -5.50507
upperback 0.840167 1.89884 -0.909946
thorax -1.33634 0.964979 2.05484
lowerneck -10.7145 -5.22876 -3.96215
upperneck 14.5604 -7.14555 4.34094
head 6.49158 -3.328 1.3953
rclavicle 9.47954e-015 -2.14687e-014
rhumerus 24.3487 -10.0138 -86.2709
rradius 34.8566
rwrist -12.8931
rhand -14.8527 30.128
rfingers 7.12502
rthumb 11.3068 0.452804
lclavicle 9.47954e-015 -2.14687e-014
lhumerus -49.6444 14.159 75.521
lradius 15.1288
lwrist -2.43451
lhand -15.5943 20.8294
lfingers 7.12502
lthumb 10.5915 50.5425
rfemur -51.5709 2.6991 12.7877
rtibia 39.3383
rfoot -4.90129 -9.54877
rtoes -1.22149
lfemur -1.87159 -1.33679 -28.415
ltibia 18.7022
lfoot -16.0103 7.32359
ltoes -14.77
184
root 17.2701 18.8213 13.4988 1.4822 0.314022 3.07234
lowerback 3.54112 1.50539 -5.53089
upperback 0.75384 1.78818 -0.862707
thorax -1.35086 0.911929 2.12556
lowerneck -10.8817 -5.34494 -3.89186
upperneck 14.6917 -7.29532 4.21348
head 6.5614 -3.40247 1.32372
rclavicle -6.01324e-015 9.34288e-015
rhumerus 24.4833 -9.32982 -85.3004
rradius 35.752
rwrist -13.6806
rhand -14.9069 30.3621
rfingers 7.12502
rthumb 11.2545 0.684059
lclavicle -6.01324e-015 9.34288e-015
lhumerus -50.4777 14.2795 74.9089
lradius 14.8746
lwrist -3.12788
lhand -15.7929 20.9409
lfingers 7.12502
lthumb 10.4 50.6637
rfemur -52.2802 3.01621 12.298
rtibia 37.6711
rfoot -4.41969 -10.8361
rtoes -2.42031
lfemur -1.19401 -1.95067 -28.4484
ltibia 17.6785
lfoot -16.059 7.91881
ltoes -12.9596
185
root 17.2774 18.8269 13.6383 1.73566 0.669414 3.46577
lowerback 3.60579 1.48519 -5.81442
upperback 0.631749 1.73897 -1.00153
thorax -1.51323 0.894575 2.13969
lowerneck -11.075 -5.5055 -4.03332
upperneck 14.9874 -7.51794 4.33837
head 6.70957 -3.50082 1.35638
rclavicle -3.05756e-014 3.55825e-014
rhumerus 24.1869 -8.59871 -84.0367
rradius 36.8378
rwrist -14.8545
rhand -15.207 30.502
rfingers 7.12502
rthumb 10.9651 0.808365
lclavicle -3.05756e-014 3.55825e-014
lhumerus -51.562 15.1911 73.3332
lradius 14.769
lwrist -5.24798
lhand -15.3927 20.5979
lfingers 7.12502
lthumb 10.786 50.301
rfemur -52.8364 3.06763 11.3613
rtibia 36.0756
rfoot -3.84524 -11.0875
rtoes -2.206
lfemur -0.436538 -2.05524 -28.9979
ltibia 16.7083
lfoot -15.9492 8.24784
ltoes -11.4189
186
root 17.2869 18.8325 13.7809 1.88849 1.16153 3.78925
lowerback 3.80132 1.40653 -6.07223
upperback 0.52776 1.60338 -1.08941
thorax -1.72385 0.835578 2.19401
lowerneck -11.0394 -5.57894 -4.21036
upperneck 15.0719 -7.64229 4.62921
head 6.75486 -3.54614 1.46517
rclavicle 1.0051e-014 6.16232e-015
rhumerus 25.1306 -9.29215 -84.1467
rradius 37.1112
rwrist -14.0804
rhand -14.8195 30.4345
rfingers 7.12502
rthumb 11.3388 0.761028
lclavicle 1.0051e-014 6.16232e-015
lhumerus -52.6835 16.074 71.724
lradius 14.7512
lwrist -7.13375
lhand -13.4963 20.5923
lfingers 7.12502
lthumb 12.6147 50.1914
rfemur -53.2563 2.90236 10.57
rtibia 34.7957
rfoot -4.1386 -10.6611
rtoes 0.198133
lfemur 0.631476 -1.93279 -29.4291
ltibia 15.4443
lfoot -15.5924 8.25328
ltoes -11.3294
187
root 17.2922 18.8364 13.9331 1.97459 1.58065 3.65211
lowerback 3.85985 1.28861 -5.92805
upperback 0.515719 1.44856 -1.03703
thorax -1.75397 0.758722 2.17511
lowerneck -10.9955 -5.60103 -4.24975
upperneck 14.9613 -7.68192 4.74655
head 6.72001 -3.5598 1.50709
rclavicle 6.08778e-016 -1.46107e-014
rhumerus 25.7343 -9.35778 -83.9231
rradius 37.5466
rwrist -13.9652
rhand -14.5615 30.3796
rfingers 7.12502
rthumb 11.5876 0.720005
lclavicle 6.08778e-016 -1.46107e-014
lhumerus -53.3062 16.3435 70.8232
lradius 14.2712
lwrist -7.84798
lhand -14.4209 19.8743
lfingers 7.12502
lthumb 11.7232 49.5262
rfemur -53.6825 3.12322 10.0833
rtibia 33.512
rfoot -4.57128 -10.8554
rtoes 1.62855
lfemur 1.84926 -1.99557 -29.361
ltibia 14.0497
lfoot -15.29 8.45272
ltoes -12.3757
188
root 17.2918 18.8613 14.0845 2.02741 1.89171 3.35275
lowerback 3.74976 1.14724 -5.7111
upperback 0.616113 1.28317 -0.954591
thorax -1.57211 0.668777 2.15192
lowerneck -10.8334 -5.53399 -4.07884
upperneck 14.6624 -7.59315 4.64197
head 6.58108 -3.52254 1.46234
rclavicle 1.14177e-014 -7.95139e-015
rhumerus 26.437 -9.25325 -83.7981
rradius 37.8424
rwrist -14.0422
rhand -14.4217 30.3325
rfingers 7.12502
rthumb 11.7225 0.680486
lclavicle 1.14177e-014 -7.95139e-015
lhumerus -53.7535 16.5913 70.0913
lradius 13.8958
lwrist -8.02275
lhand -13.3769 20.9122
lfingers 7.12502
lthumb 12.7299 50.5042
rfemur -53.7252 3.47265 9.90011
rtibia 32.3128
rfoot -5.09291 -11.27
rtoes 0.652237
lfemur 3.00513 -2.20218 -29.1014
ltibia 12.6558
lfoot -14.8342 8.90161
ltoes -13.7463
189
root 17.2866 18.867 14.2352 2.0013 2.22246 3.12794
lowerback 3.9173 1.08182 -5.58987
upperback 0.638987 1.19161 -0.866763
thorax -1.63451 0.623814 2.17704
lowerneck -10.5664 -5.5482 -3.98096
upperneck 14.4141 -7.60294 4.50477
head 6.44674 -3.54041 1.41187
rclavicle 1.45237e-014 -1.0138e-014
rhumerus 26.7448 -9.28598 -83.4494
rradius 38.3448
rwrist -14.2031
rhand -14.3497 30.3344
rfingers 7.12502
rthumb 11.7919 0.686355
lclavicle 1.45237e-014 -1.0138e-014
lhumerus -54.3729 17.0495 69.0488
lradius 13.6224
lwrist -8.52507
lhand -15.54 19.8084
lfingers 7.12502
lthumb 10.6439 49.5188
rfemur -53.879 4.11855 9.33463
rtibia 31.0721
rfoot -5.07835 -11.8999
rtoes 1.94911
lfemur 4.18527 -2.45619 -28.8719
ltibia 11.4317
lfoot -14.6014 9.08473
ltoes -13.7195
190
root 17.2858 18.8785 14.3813 2.0042 2.53567 3.18621
lowerback 3.97043 1.15509 -5.61137
upperback 0.754377 1.28968 -0.831944
thorax -1.5542 0.668796 2.21976
lowerneck -10.5988 -5.77579 -4.30608
upperneck 14.2942 -7.8773 4.66449
head 6.44631 -3.67815 1.48819
rclavicle -1.34552e-014 1.80894e-014
rhumerus 27.1001 -9.59184 -82.7998
rradius 38.7965
rwrist -14.5557
rhand -14.0968 30.4378
rfingers 7.12502
rthumb 12.0357 0.803896
lclavicle -1.34552e-014 1.80894e-014
lhumerus -54.7469 17.5785 67.9569
lradius 13.195
lwrist -9.77326
lhand -15.9706 19.7787
lfingers 7.12502
lthumb 10.2285 49.51
rfemur -54.068 5.00141 8.06338
rtibia 29.8074
rfoot -5.17166 -12.4049
rtoes 2.27274
lfemur 5.27688 -2.48456 -28.9131
ltibia 10.4089
lfoot -14.5582 9.02504
ltoes -13.3249
191
root 17.2854 18.8849 14.5309 2.12434 2.953 3.37406
lowerback 3.90722 1.13295 -5.77732
upperback 0.823317 1.26034 -0.852181
thorax -1.44828 0.650934 2.29526
lowerneck -10.5807 -5.93109 -4.48558
upperneck 14.0948 -8.07751 4.8349
head 6.40397 -3.77336 1.55381
rclavicle 1.37286e-014 -1.11319e-014
rhumerus 27.5194 -9.85899 -82.2815
rradius 39.1209
rwrist -14.5611
rhand -13.4063 30.7534
rfingers 7.12502
rthumb 12.7015 1.15972
lclavicle 1.37286e-014 -1.11319e-014
lhumerus -55.2502 18.1525 66.7354
lradius 12.8464
lwrist -11.142
lhand -16.1771 20.2661
lfingers 7.12502
lthumb 10.0293 50.0071
rfemur -53.9189 5.21627 7.27746
rtibia 28.6715
rfoot -4.78647 -12.5354
rtoes -0.67697
lfemur 6.17247 -2.42892 -29.0719
ltibia 9.49214
lfoot -14.1884 8.98815
ltoes -15.2624
192
root 17.2802 18.8608 14.6935 2.32028 3.40351 3.50894
lowerback 3.89668 1.03463 -5.96641
upperback 0.71843 1.11827 -0.854142
thorax -1.54238 0.585455 2.40578
lowerneck -10.4426 -6.01839 -4.53264
upperneck 13.984 -8.19823 4.89496
head 6.35546 -3.83322 1.57378
rclavicle 4.13721e-015 -1.46107e-014
rhumerus 27.6611 -9.91289 -81.8054
rradius 39.4935
rwrist -14.7164
rhand -13.0607 30.7961
rfingers 7.12502
rthumb 13.0347 1.22338
lclavicle 4.13721e-015 -1.46107e-014
lhumerus -56.0916 18.954 65.1087
lradius 12.5883
lwrist -12.6587
lhand -17.0555 21.1524
lfingers 7.12502
lthumb 9.1818 50.9325
rfemur -54.2752 5.63209 6.29674
rtibia 27.6478
rfoot -3.95166 -13.2056
rtoes -2.60973
lfemur 7.06995 -2.41568 -29.1715
ltibia 8.45435
lfoot -13.4872 8.95064
ltoes -18.204
